<?xml version="1.0" encoding="utf-8"?>
<!-- Generator: Adobe Illustrator 16.0.0, SVG Export Plug-In . SVG Version: 6.00 Build 0)  -->
<!DOCTYPE svg PUBLIC "-//W3C//DTD SVG 1.1//EN" "http://www.w3.org/Graphics/SVG/1.1/DTD/svg11.dtd">
<svg version="1.1" id="Layer_1" xmlns="http://www.w3.org/2000/svg" xmlns:xlink="http://www.w3.org/1999/xlink" x="0px" y="0px"
	 width="20px" height="17.962px" viewBox="0 0 20 17.962" enable-background="new 0 0 20 17.962" xml:space="preserve">
<rect x="280.396" y="-154.874" fill="#1A173D" width="95" height="46.667"/>
<rect x="97.25" y="-212.538" fill="#1A173D" width="198.751" height="46.667"/>
<g>
	<path fill="#ED1C24" d="M337.916-169.468c-1.022,0.574-2.199,0.905-3.454,0.905c-0.525,0-1.035-0.062-1.527-0.17
		c-3.169-0.698-5.541-3.52-5.541-6.899c0-0.943,0.188-1.841,0.523-2.664l-0.961,1.921l-3.896,7.79l-3.608,7.211h15.01h7.505
		L337.916-169.468z"/>
	<path fill="#FFF200" d="M327.917-178.295l0.461-0.921C328.204-178.922,328.048-178.616,327.917-178.295z"/>
	<path fill="#FFF200" d="M340.541-179.221l0.465,0.928C340.875-178.615,340.717-178.924,340.541-179.221z"/>
</g>
<polygon fill="#FFFFFF" points="69.904,-150.455 55.895,-178.455 41.885,-150.455 "/>
<polygon fill="#ED1C24" points="252.963,-263.597 267.973,-263.597 260.467,-278.597 252.963,-293.597 245.457,-278.597 
	237.953,-263.597 "/>
<circle fill="#231F20" cx="332.399" cy="-226.546" r="7.067"/>
<g>
	<path fill="#FFF200" d="M341.348-160.374l-3.887-7.77c-0.951,0.382-1.972,0.581-2.999,0.581c-4.449,0-8.068-3.62-8.068-8.069
		c0-1.045,0.201-2.068,0.598-3.041l7.47-14.935l16.629,33.234H341.348z M334.462-178.261c-1.45,0-2.63,1.18-2.63,2.629
		c0,1.45,1.18,2.63,2.63,2.63c1.449,0,2.629-1.18,2.629-2.63C337.091-177.081,335.911-178.261,334.462-178.261z"/>
	<path fill="#FFFFFF" d="M334.461-191.373l6.08,12.152l0.465,0.928l0.96,1.918l7.506,15h-7.506l-4.05-8.095
		c-1.021,0.574-2.198,0.905-3.454,0.905c-3.904,0-7.068-3.164-7.068-7.069c0-0.943,0.188-1.841,0.523-2.664l0.461-0.921
		L334.461-191.373 M334.462-172.001c2.004,0,3.629-1.625,3.629-3.63c0-2.004-1.625-3.629-3.629-3.629
		c-2.006,0-3.63,1.625-3.63,3.629C330.832-173.626,332.456-172.001,334.462-172.001 M334.461-195.843l-1.789,3.575l-6.082,12.156
		l-0.462,0.921l-0.034,0.069l-0.029,0.071c-0.445,1.093-0.671,2.243-0.671,3.418c0,5,4.068,9.069,9.068,9.069
		c0.846,0,1.687-0.12,2.495-0.352l3.22,6.437l0.554,1.105h1.235h7.506h3.237l-1.449-2.895l-7.506-15l-0.959-1.918l-0.466-0.929
		l-6.079-12.152L334.461-195.843L334.461-195.843z M334.462-174.001c-0.898,0-1.63-0.731-1.63-1.63c0-0.898,0.731-1.629,1.63-1.629
		s1.629,0.731,1.629,1.629C336.091-174.732,335.36-174.001,334.462-174.001L334.462-174.001z"/>
</g>
<g>
	<g>
		<path fill="#FFFFFF" d="M328.378-115.29h15.01h5.27l-2.773-5.541c-0.809,0.231-1.649,0.352-2.494,0.352
			c-4.331,0-7.957-3.054-8.852-7.12"/>
	</g>
	<g>
		<path fill="#FFFFFF" d="M349.658-113.29l-3.774-7.542c-0.809,0.232-1.649,0.352-2.494,0.352c-5,0-9.068-4.068-9.068-9.068
			c0-1.178,0.227-2.329,0.672-3.42l0.028-0.07l8.366-16.721l18.249,36.47H349.658z M343.39-131.176
			c-0.899,0-1.631,0.731-1.631,1.629c0,0.899,0.731,1.63,1.631,1.63c0.898,0,1.629-0.731,1.629-1.63
			C345.019-130.445,344.288-131.176,343.39-131.176z"/>
		<path fill="#1A173D" d="M343.388-145.29l6.08,12.152l0.465,0.929l0.961,1.919l7.506,15h-7.506l-4.051-8.095
			c-1.021,0.574-2.197,0.905-3.453,0.905c-3.904,0-7.068-3.164-7.068-7.068c0-0.943,0.188-1.842,0.523-2.664l0.461-0.922
			L343.388-145.29 M343.39-125.917c2.004,0,3.629-1.625,3.629-3.63c0-2.004-1.625-3.629-3.629-3.629
			c-2.006,0-3.631,1.625-3.631,3.629C339.759-127.542,341.384-125.917,343.39-125.917 M343.388-154.229l-3.577,7.15l-6.082,12.156
			L333.267-134l-0.067,0.136l-0.058,0.141c-0.544,1.333-0.82,2.738-0.82,4.177c0,6.103,4.965,11.068,11.068,11.068
			c0.466,0,0.931-0.03,1.391-0.088l2.536,5.068l1.105,2.21h2.472h7.506h6.475l-2.897-5.79l-7.506-15l-0.962-1.92l-0.464-0.928
			l-6.08-12.151L343.388-154.229L343.388-154.229z"/>
	</g>
</g>
<g>
	<g>
		<path fill="#FFFFFF" d="M298.197-129.917c0.009,0.056,0.016,0.112,0.026,0.168c0.064,0.35,0.157,0.689,0.271,1.02
			c0.021,0.06,0.043,0.118,0.065,0.177c0.124,0.33,0.27,0.65,0.44,0.955c0.018,0.033,0.039,0.064,0.059,0.097
			c0.183,0.313,0.385,0.614,0.612,0.895c0.005,0.006,0.008,0.012,0.013,0.017c0.23,0.284,0.487,0.546,0.76,0.791
			c0.029,0.026,0.059,0.054,0.088,0.08c0.271,0.235,0.562,0.451,0.867,0.645c0.029,0.019,0.061,0.036,0.09,0.055
			c0.654,0.399,1.377,0.7,2.15,0.87l0,0c0.239,0.053,0.482,0.093,0.729,0.122c0.01,0.001,0.018,0.003,0.026,0.004
			c0.253,0.028,0.511,0.044,0.772,0.044c1.254,0,1.604-0.144,1.604-0.144c0.127-0.053,0.258-0.091,0.391-0.116
			c0.014-0.003,0.026-0.002,0.039-0.004c0.297-0.052,0.599-0.033,0.889,0.038c0.041,0.01,0.082,0.021,0.123,0.034
			c0.169,0.052,0.334,0.116,0.487,0.207c0.001,0.001,0.001,0.001,0.002,0.002c0.151,0.089,0.286,0.203,0.411,0.326
			c0.032,0.032,0.063,0.063,0.092,0.098c0.12,0.134,0.229,0.277,0.311,0.441l2.262,4.519c0.492,0.983,1.795,1.788,2.895,1.788h3.506
			c1.1,0,1.598-0.805,1.105-1.789L313.565-130c-0.492-0.984-1.111-2.221-1.375-2.748c-0.264-0.528-0.585-1.169-0.713-1.424
			c-0.128-0.256-0.635-1.27-1.127-2.254L306.06-145c-0.246-0.492-0.57-0.738-0.895-0.738s-0.648,0.246-0.895,0.738l-4.293,8.578
			c-0.492,0.984-0.998,1.996-1.125,2.25s-0.466,1.235-0.754,2.182c0,0,0,0,0,0.943C298.099-130.662,298.138-130.286,298.197-129.917
			z M305.167-134.676c2.004,0,3.629,1.625,3.629,3.629c0,2.005-1.625,3.63-3.629,3.63c-2.006,0-3.631-1.625-3.631-3.63
			C301.536-133.051,303.161-134.676,305.167-134.676z"/>
		<g>
			<path fill="#FFFFFF" d="M292.155-117.54c-0.25,0-0.446-0.064-0.511-0.17c-0.065-0.104-0.035-0.309,0.077-0.534l4.448-8.89
				c1.538,3.509,5.067,5.904,8.997,5.904c0.893,0,1.582-0.059,2.115-0.184l1.938,3.873H292.155z"/>
			<path fill="#FFFFFF" d="M296.188-125.496c1.893,3.034,5.271,5.017,8.979,5.017c0.656,0,1.215-0.031,1.695-0.097l1.145,2.286
				h-0.842h-4h-10.582l1.627-3.251l0.895-1.789l0.896-1.789L296.188-125.496 M296.315-129.099l-1.656,3.31
				c-0.492,0.984-1.299,2.594-1.791,3.578l-1.817,3.633c-0.492,0.984,0.005,1.789,1.104,1.789h11.01c1.1,0,2.9,0,4,0h3.432
				c-0.237-0.281-0.451-0.576-0.609-0.894l-2.261-4.518c-0.013-0.025-0.083-0.073-0.183-0.073c-0.004,0-0.007,0-0.011,0
				c-0.48,0.198-1.255,0.295-2.366,0.295C300.836-121.979,297.21-125.033,296.315-129.099L296.315-129.099z"/>
		</g>
	</g>
</g>
<g>
	<g>
		<path fill="#00A651" d="M209.826-267.125l-7.506-15l-0.96-1.918c0.335,0.822,0.522,1.719,0.522,2.661
			c0,2.649-1.458,4.953-3.612,6.164l4.05,8.095H209.826z"/>
		<path fill="#ED1C24" d="M193.289-274.484c-3.169-0.698-5.541-3.52-5.541-6.899c0-0.943,0.188-1.841,0.523-2.664l-0.961,1.921
			l-3.896,7.79c1.267,1.201,2.974,1.943,4.858,1.943C190.234-272.392,192.008-273.193,193.289-274.484z"/>
		<path fill="#ED1C24" d="M194.815-267.125h7.505l-4.05-8.095c-1.022,0.574-2.199,0.905-3.454,0.905
			c-0.525,0-1.035-0.062-1.527-0.17c-1.281,1.291-3.055,2.092-5.017,2.092c-1.885,0-3.592-0.742-4.858-1.943l-3.608,7.211H194.815z"
			/>
	</g>
	<path fill="#FFF200" d="M188.271-284.046l0.461-0.921C188.559-284.673,188.402-284.367,188.271-284.046z"/>
	<path fill="#FFF200" d="M200.896-284.972l0.465,0.928C201.229-284.366,201.071-284.675,200.896-284.972z"/>
</g>
<g>
	<path fill="#FFF200" d="M201.36-284.043l-0.465-0.928l-6.08-12.152l-6.083,12.156l-0.461,0.921
		c-0.335,0.822-0.523,1.721-0.523,2.664c0,3.905,3.164,7.069,7.068,7.069c3.902,0,7.066-3.164,7.066-7.069
		C201.883-282.325,201.695-283.222,201.36-284.043z M194.816-277.752c-2.006,0-3.63-1.625-3.63-3.63c0-2.004,1.624-3.629,3.63-3.629
		c2.004,0,3.629,1.625,3.629,3.629C198.445-279.377,196.82-277.752,194.816-277.752z"/>
</g>
<g>
	<path fill="#1A173D" d="M62.64-163.445c0-3.718-3.014-6.731-6.73-6.731c-3.716,0-6.73,3.013-6.73,6.731
		c0,0.897,0.18,1.754,0.499,2.537l0.438,0.877l5.793,9.576l5.791-9.573l0.441-0.883C62.46-161.693,62.64-162.549,62.64-163.445z"/>
</g>
<g>
	<path fill="#FFF200" d="M150.39-270.254c0-3.718-3.014-6.731-6.73-6.731c-3.716,0-6.73,3.013-6.73,6.731
		c0,0.897,0.18,1.754,0.499,2.537l0.438,0.877l5.793,9.576l5.791-9.573l0.441-0.883C150.21-268.502,150.39-269.357,150.39-270.254z"
		/>
</g>
<line fill="#FFFFFF" stroke="#FFFFFF" stroke-width="2" stroke-linecap="round" stroke-miterlimit="10" x1="299.292" y1="-149.457" x2="311.042" y2="-149.457"/>
<rect x="324.541" y="-118.519" fill="#1A173D" width="42.25" height="15.375"/>
<g>
	<circle fill="#FFFFFF" cx="55.895" cy="-163.946" r="3.63"/>
</g>
<g>
	<path fill="#FFFFFF" d="M69.355-205.169c0-3.718-3.014-6.731-6.73-6.731c-3.716,0-6.73,3.013-6.73,6.731
		c0,0.897,0.18,1.754,0.499,2.537l0.438,0.877l5.793,9.576l5.791-9.573l0.441-0.883C69.176-203.417,69.355-204.272,69.355-205.169z"
		/>
</g>
<g>
	<circle fill="#FFFFFF" cx="164.11" cy="-234.552" r="3.63"/>
</g>
<g>
	<rect x="59.489" y="-206.618" fill="#1A173D" width="6.104" height="5.469"/>
	<polygon fill="#1A173D" points="62.542,-205.784 66.674,-205.784 64.607,-207.573 62.542,-209.362 60.476,-207.573 58.41,-205.784 
			"/>
</g>
<rect x="64.375" y="-208.368" fill="#1A173D" width="0.896" height="1.625"/>
<g>
	<path fill="#FFFFFF" d="M118.693-195.308c0-3.718-3.014-6.731-6.73-6.731c-3.715,0-6.73,3.013-6.73,6.731
		c0,0.897,0.18,1.754,0.5,2.537l0.438,0.877l5.793,9.576l5.791-9.573l0.441-0.883C118.514-193.556,118.693-194.412,118.693-195.308z
		"/>
</g>
<g>
	<g>
		<rect x="108.492" y="-197.339" fill="#1A173D" width="6.941" height="6.218"/>
		<polygon fill="#1A173D" points="111.964,-196.391 116.661,-196.391 114.312,-198.425 111.964,-200.459 109.614,-198.425 
			107.266,-196.391 		"/>
	</g>
	<rect x="114.048" y="-199.329" fill="#1A173D" width="1.018" height="1.848"/>
</g>
<rect x="166.273" y="-202.175" fill="#FFFFFF" width="2.438" height="4.429"/>
<polygon fill="#FFFFFF" points="215.831,-202.886 207.616,-195.308 207.616,-182.502 224.254,-182.502 224.254,-195.298 "/>
<rect x="220.833" y="-200.294" fill="#FFFFFF" width="2.438" height="4.429"/>
<rect x="247.15" y="-192.914" fill="#FFFFFF" width="2.438" height="7.417"/>
<rect x="191.666" y="-204.038" fill="#FFFFFF" width="2.438" height="4.429"/>
<g>
	<path fill="#FFFFFF" d="M135.225-203.15c-3.988,0-7.23,3.244-7.23,7.231c0,0.73,0.113,1.449,0.338,2.16
		c0.063,0.201,0.131,0.401,0.213,0.601l0.188,0.375l0.078,0.152l0.193,0.386l1.293,2.139l2.998,4.954l0.604,1l1.326,2.19l1.324-2.19
		l0.605-1l2.994-4.952l1.314-2.173l0.176-0.354l0.076-0.152l0.205-0.412c0.074-0.185,0.139-0.373,0.197-0.561
		c0.221-0.701,0.338-1.425,0.338-2.162C142.455-199.906,139.211-203.15,135.225-203.15z M140.588-192.76l-0.078,0.128l-0.361,0.598
		l-4.162,6.881l-0.605,1l-0.156,0.258l-0.156-0.258l-0.605-1l-4.166-6.883l-0.359-0.596l-0.059-0.097l-0.367-0.73l2.379-2.059
		l3.334-2.887l2.957,2.563v-0.958h1.445v2.208l1.309,1.133L140.588-192.76z M140.627-195.049v-1.751v-1h-1h-1.445h-0.732
		l-1.57-1.361l-0.654-0.567l-0.654,0.567l-3.334,2.887l-2.066,1.79c-0.113-0.469-0.176-0.948-0.176-1.435
		c0-3.436,2.795-6.231,6.23-6.231s6.23,2.795,6.23,6.231c0,0.49-0.064,0.971-0.176,1.437L140.627-195.049z"/>
</g>
<g>
	<path fill="none" stroke="#FFFFFF" stroke-miterlimit="10" d="M83.365-245.304c0-3.718-3.014-6.731-6.73-6.731
		c-3.716,0-6.73,3.013-6.73,6.731c0,0.897,0.18,1.754,0.499,2.537l0.438,0.877l5.793,9.576l5.791-9.573l0.441-0.883
		C83.186-243.552,83.365-244.408,83.365-245.304z"/>
</g>
<g>
	<path fill="#FFFFFF" d="M76.635-247.79l2.958,2.563v-0.958h1.444v2.208l2.264,1.96h-1.742v7.479h-9.851v-7.479h-1.74l3.333-2.886
		L76.635-247.79 M76.635-249.113l-0.654,0.567l-3.334,2.887l-3.333,2.886l-2.028,1.756h2.683h0.74v6.479v1h1h9.851h1v-1v-6.479
		h0.742h2.683l-2.028-1.756l-1.918-1.661v-1.751v-1h-1h-1.444H78.86l-1.571-1.361L76.635-249.113L76.635-249.113z"/>
</g>
<g>
	<g>
		<rect x="112.275" y="-195.683" fill="#FFFFFF" width="1.25" height="1.25"/>
	</g>
	<g>
		<rect x="112.291" y="-193.788" fill="#FFFFFF" width="1.25" height="1.25"/>
	</g>
	<g>
		<rect x="110.385" y="-195.683" fill="#FFFFFF" width="1.25" height="1.25"/>
	</g>
	<g>
		<rect x="110.385" y="-193.788" fill="#FFFFFF" width="1.25" height="1.25"/>
	</g>
</g>
<g>
	<path fill="#1A173D" d="M166.271-192.145c0-2.759-2.236-4.996-4.994-4.996c-2.757,0-4.995,2.236-4.995,4.996
		c0,0.666,0.134,1.302,0.371,1.882l0.324,0.651l4.3,7.107l4.298-7.104l0.327-0.655C166.139-190.845,166.271-191.48,166.271-192.145z
		"/>
</g>
<g>
	<g>
		<rect x="161.672" y="-193.813" fill="#FFFFFF" width="1.586" height="1.586"/>
	</g>
	<g>
		<rect x="161.692" y="-191.408" fill="#FFFFFF" width="1.586" height="1.586"/>
	</g>
	<g>
		<rect x="159.273" y="-193.813" fill="#FFFFFF" width="1.586" height="1.586"/>
	</g>
	<g>
		<rect x="159.273" y="-191.408" fill="#FFFFFF" width="1.586" height="1.586"/>
	</g>
</g>
<g>
	<g>
		<path fill="#FFFFFF" d="M183.282-192.015l-0.416-0.832c-0.341-0.83-0.506-1.667-0.506-2.523c0-3.642,2.963-6.605,6.604-6.605
			c3.641,0,6.603,2.963,6.603,6.605c0,0.855-0.164,1.692-0.488,2.487l-0.415,0.835l-5.699,9.425L183.282-192.015z"/>
		<path fill="#1A173D" d="M188.965-201.475c3.37,0,6.103,2.733,6.103,6.105c0,0.813-0.162,1.589-0.451,2.298l-0.399,0.801
			l-5.252,8.682l-5.255-8.685l-0.396-0.796c-0.29-0.709-0.453-1.486-0.453-2.3C182.86-198.742,185.596-201.475,188.965-201.475
			 M188.965-202.475c-3.917,0-7.104,3.188-7.104,7.105c0,0.921,0.178,1.823,0.527,2.679l0.015,0.034l0.016,0.033l0.396,0.796
			l0.019,0.037l0.021,0.035l5.255,8.685l0.855,1.415l0.855-1.415l5.252-8.682l0.021-0.035l0.018-0.037l0.399-0.801l0.018-0.034
			l0.014-0.035c0.349-0.855,0.525-1.755,0.525-2.676C196.067-199.288,192.881-202.475,188.965-202.475L188.965-202.475z"/>
	</g>
</g>
<g>
	<g>
		<g>
			<rect x="189.23" y="-197.331" fill="#1A173D" width="1.931" height="1.931"/>
		</g>
	</g>
	<g>
		<g>
			<rect x="186.768" y="-197.331" fill="#1A173D" width="1.931" height="1.931"/>
		</g>
	</g>
	<g>
		<g>
			<rect x="189.23" y="-194.869" fill="#1A173D" width="1.931" height="1.931"/>
		</g>
	</g>
	<g>
		<g>
			<rect x="186.768" y="-194.869" fill="#1A173D" width="1.931" height="1.931"/>
		</g>
	</g>
</g>
<g>
	<g>
		<rect x="135.607" y="-193.694" fill="#FFFFFF" width="1.529" height="1.531"/>
	</g>
	<g>
		<rect x="135.625" y="-191.373" fill="#FFFFFF" width="1.531" height="1.531"/>
	</g>
	<g>
		<rect x="133.291" y="-193.694" fill="#FFFFFF" width="1.531" height="1.531"/>
	</g>
	<g>
		<rect x="133.291" y="-191.373" fill="#FFFFFF" width="1.531" height="1.531"/>
	</g>
</g>
<polygon fill="#1A173D" points="215.936,-166.913 230.945,-166.913 223.439,-181.024 215.936,-195.134 208.43,-181.024 
	200.926,-166.913 "/>
<g>
	<g>
		<rect x="216.331" y="-187.58" fill="#FFFFFF" width="1.586" height="1.586"/>
	</g>
	<g>
		<rect x="216.352" y="-185.175" fill="#FFFFFF" width="1.586" height="1.586"/>
	</g>
	<g>
		<rect x="213.933" y="-187.58" fill="#FFFFFF" width="1.586" height="1.586"/>
	</g>
	<g>
		<rect x="213.933" y="-185.175" fill="#FFFFFF" width="1.586" height="1.586"/>
	</g>
</g>
<g>
	<polygon fill="#1A173D" points="226.262,-165.396 242.936,-196.746 259.61,-165.396 	"/>
	<path fill="#FFFFFF" d="M242.936-194.617l7.504,14.11l7.506,14.111h-15.01h-15.01l7.504-14.111L242.936-194.617 M242.936-198.876
		l-1.766,3.32l-7.506,14.11l-7.504,14.111l-1.563,2.939h3.329h15.01h15.01h3.329l-1.563-2.939l-7.506-14.111l-7.504-14.11
		L242.936-198.876L242.936-198.876z"/>
</g>
<g>
	<g>
		<rect x="243.331" y="-186.653" fill="#FFFFFF" width="1.586" height="1.586"/>
	</g>
	<g>
		<rect x="243.352" y="-184.248" fill="#FFFFFF" width="1.586" height="1.586"/>
	</g>
	<g>
		<rect x="240.933" y="-186.653" fill="#FFFFFF" width="1.586" height="1.586"/>
	</g>
	<g>
		<rect x="240.933" y="-184.248" fill="#FFFFFF" width="1.586" height="1.586"/>
	</g>
</g>
<g>
	<polygon fill="#1A173D" points="259.59,-167.396 272.936,-192.487 286.28,-167.396 	"/>
	<path fill="#FFFFFF" d="M272.936-190.357l5.738,10.791l5.942,11.171h-11.681h-11.681l5.94-11.171L272.936-190.357 M272.936-194.617
		l-7.506,14.11l-7.504,14.111h15.01h15.01l-7.506-14.111L272.936-194.617L272.936-194.617z"/>
</g>
<rect x="186.768" y="-181.023" fill="#1A173D" width="67.982" height="46.667"/>
<rect x="43.386" y="-26.434" fill="#1A173D" width="67.982" height="46.667"/>
<rect x="254.205" y="-181.023" fill="#1A173D" width="67.982" height="46.667"/>
<g>
	<g>
		<path fill="#1A173D" d="M272.938-184.141c-1.427,0-2.587-1.16-2.587-2.586c0-0.332,0.064-0.66,0.192-0.976l0.201-0.397
			l2.192-3.617l2.229,3.687l0.196,0.4c0.096,0.243,0.16,0.571,0.16,0.903C275.523-185.301,274.364-184.141,272.938-184.141z"/>
		<path fill="#FFFFFF" d="M272.938-189.785l1.332,2.203l0.157,0.314c0.064,0.177,0.097,0.358,0.097,0.54
			c0,0.875-0.711,1.586-1.585,1.586c-0.875,0-1.587-0.711-1.587-1.586c0-0.183,0.032-0.365,0.097-0.542l0.155-0.312L272.938-189.785
			 M272.938-193.648l-3.089,5.103l-0.232,0.467c-0.169,0.417-0.266,0.873-0.266,1.351c0,1.981,1.607,3.586,3.587,3.586
			c1.979,0,3.585-1.605,3.585-3.586c0-0.478-0.097-0.933-0.266-1.351l-0.235-0.47L272.938-193.648L272.938-193.648z"/>
	</g>
</g>
<rect x="275.304" y="-193.212" transform="matrix(0.4801 0.8772 -0.8772 0.4801 -22.4782 -341.0783)" fill="#1A173D" width="2.439" height="7.417"/>
<g>
	<g>
		<path fill="#FFFFFF" d="M39.892-114.528v-4.961h-3.245v2.153l-6.645-5.759l-7.491,6.486l-7.49,6.485h3.912v16.805H30l-5.719-9.455
			l-0.432-0.865c-0.315-0.772-0.493-1.618-0.493-2.505c0-3.671,2.977-6.645,6.644-6.645c3.67,0,6.645,2.974,6.645,6.645
			c0,0.887-0.178,1.729-0.489,2.503l-0.438,0.871L30-93.318h11.064v-16.805h3.915L39.892-114.528z"/>
	</g>
	<g>
		<g>
			<rect x="30.525" y="-108.365" fill="#FFFFFF" width="2.109" height="2.109"/>
		</g>
		<g>
			<rect x="30.554" y="-105.166" fill="#FFFFFF" width="2.108" height="2.109"/>
		</g>
		<g>
			<rect x="27.335" y="-108.365" fill="#FFFFFF" width="2.109" height="2.109"/>
		</g>
		<g>
			<rect x="27.335" y="-105.166" fill="#FFFFFF" width="2.109" height="2.109"/>
		</g>
	</g>
</g>
<g>
	
		<line fill="none" stroke="#FFFFFF" stroke-width="4" stroke-linecap="round" stroke-miterlimit="10" x1="77.377" y1="-19.582" x2="95.688" y2="-1.271"/>
	
		<line fill="none" stroke="#FFFFFF" stroke-width="4" stroke-linecap="round" stroke-miterlimit="10" x1="77.377" y1="-19.582" x2="59" y2="-1.271"/>
</g>
<g>
	
		<line fill="none" stroke="#FFFFFF" stroke-width="4" stroke-linecap="round" stroke-miterlimit="10" x1="65.188" y1="-7.413" x2="65.188" y2="12.962"/>
	
		<line fill="none" stroke="#FFFFFF" stroke-width="4" stroke-linecap="round" stroke-miterlimit="10" x1="77" y1="-1.413" x2="77" y2="12.962"/>
	
		<line fill="none" stroke="#FFFFFF" stroke-width="4" stroke-linecap="round" stroke-miterlimit="10" x1="88.5" y1="-8.413" x2="88.5" y2="12.962"/>
	
		<line fill="none" stroke="#FFFFFF" stroke-width="4" stroke-linecap="round" stroke-miterlimit="10" x1="65.188" y1="12.962" x2="77" y2="12.962"/>
</g>
<path fill="#FFFFFF" d="M19.712,9.284l-8.999-8.994c0,0,0-0.001,0-0.001s-0.001-0.001-0.001-0.001l0,0
	c-0.002-0.002-0.004-0.003-0.006-0.005c-0.046-0.046-0.096-0.087-0.148-0.122c-0.004-0.003-0.009-0.004-0.014-0.007
	c-0.05-0.032-0.102-0.061-0.157-0.083c-0.023-0.009-0.047-0.014-0.07-0.021c-0.037-0.012-0.074-0.026-0.111-0.033
	c-0.039-0.007-0.079-0.009-0.118-0.011C10.064,0.005,10.041,0,10.017,0C9.976,0,9.935,0.006,9.895,0.012
	C9.873,0.014,9.851,0.014,9.83,0.018C9.8,0.023,9.772,0.035,9.743,0.043C9.711,0.052,9.678,0.059,9.646,0.072
	c-0.01,0.004-0.021,0.012-0.032,0.017C9.509,0.136,9.409,0.2,9.323,0.287L0.29,9.283c-0.385,0.384-0.386,1.005-0.003,1.39
	c0.192,0.192,0.444,0.289,0.696,0.289c0.251,0,0.502-0.096,0.694-0.286l1.364-1.359v7.655c0,0.543,0.44,0.982,0.983,0.982h5.807
	c0.542,0,0.983-0.439,0.983-0.982V9.909c0-0.543-0.44-0.982-0.983-0.982c-0.543,0-0.983,0.439-0.983,0.982v6.081H5.007V7.358
	l5.008-4.987L14.5,6.854v10.117c0,0.543,0.44,0.982,0.983,0.982s0.983-0.439,0.983-0.982V8.819l1.854,1.854
	c0.192,0.192,0.443,0.288,0.695,0.288s0.504-0.096,0.695-0.288C20.096,10.29,20.096,9.669,19.712,9.284z"/>
<rect x="111.368" y="-26.434" fill="#1A173D" width="67.982" height="46.667"/>
<g>
	
		<line fill="none" stroke="#FFFFFF" stroke-width="4" stroke-linecap="round" stroke-miterlimit="10" x1="145.359" y1="-19.582" x2="163.67" y2="-1.271"/>
	
		<line fill="none" stroke="#FFFFFF" stroke-width="4" stroke-linecap="round" stroke-miterlimit="10" x1="145.359" y1="-19.582" x2="126.982" y2="-1.271"/>
</g>
<g>
	
		<line fill="none" stroke="#FFFFFF" stroke-width="4" stroke-linecap="round" stroke-miterlimit="10" x1="133.17" y1="-7.413" x2="133.17" y2="12.962"/>
	
		<line fill="none" stroke="#FFFFFF" stroke-width="4" stroke-linecap="round" stroke-miterlimit="10" x1="144.982" y1="-1.413" x2="144.982" y2="12.962"/>
	
		<line fill="none" stroke="#FFFFFF" stroke-width="4" stroke-linecap="round" stroke-miterlimit="10" x1="156.482" y1="-17.413" x2="156.482" y2="12.962"/>
	
		<line fill="none" stroke="#FFFFFF" stroke-width="4" stroke-linecap="round" stroke-miterlimit="10" x1="133.17" y1="12.962" x2="144.982" y2="12.962"/>
</g>
<rect x="179.351" y="-26.559" fill="#1A173D" width="67.982" height="46.667"/>
<g>
	
		<line fill="none" stroke="#FFFFFF" stroke-width="4" stroke-linecap="round" stroke-miterlimit="10" x1="213.342" y1="-19.707" x2="231.652" y2="-1.396"/>
	
		<line fill="none" stroke="#FFFFFF" stroke-width="4" stroke-linecap="round" stroke-miterlimit="10" x1="213.342" y1="-19.707" x2="194.965" y2="-1.396"/>
</g>
<g>
	
		<line fill="none" stroke="#FFFFFF" stroke-width="4" stroke-linecap="round" stroke-miterlimit="10" x1="201.152" y1="-7.538" x2="201.152" y2="12.837"/>
	
		<line fill="none" stroke="#FFFFFF" stroke-width="4" stroke-linecap="round" stroke-miterlimit="10" x1="212.965" y1="-1.538" x2="212.965" y2="12.837"/>
	
		<line fill="none" stroke="#FFFFFF" stroke-width="4" stroke-linecap="round" stroke-miterlimit="10" x1="224.465" y1="-17.538" x2="224.465" y2="12.837"/>
	
		<line fill="none" stroke="#FFFFFF" stroke-width="4" stroke-linecap="round" stroke-miterlimit="10" x1="201.152" y1="12.837" x2="212.965" y2="12.837"/>
	
		<line fill="none" stroke="#FFFFFF" stroke-width="4" stroke-linecap="round" stroke-miterlimit="10" x1="224.465" y1="12.837" x2="231.652" y2="12.837"/>
</g>
</svg>
